<svg width="24" height="24" viewBox="0 0 24 24" fill="none" xmlns="http://www.w3.org/2000/svg">
<path d="M1.087 6.34913C1.087 6.34913 1.28136 1.25975 6.87465 1.42532C12.4679 1.59088 21.8908 1.36773 22.8339 6.93941C23.7769 12.5111 16.7655 22.9778 11.1074 22.9634C6.22678 22.949 0.784664 13.9076 1.087 6.34913Z" fill="#B54185"/>
<path d="M12 7.09058C10.006 7.09058 8.38635 8.71026 8.38635 10.7043C8.38635 12.6983 10.006 14.3179 12 14.3179C13.994 14.3179 15.6137 12.6983 15.6137 10.7043C15.6137 8.70306 13.994 7.09058 12 7.09058ZM12 13.0438C10.7043 13.0438 9.6533 11.9928 9.6533 10.6971C9.6533 9.40132 10.7043 8.35033 12 8.35033C13.2958 8.35033 14.3468 9.40132 14.3468 10.6971C14.3468 11.9928 13.2958 13.0438 12 13.0438Z" fill="white"/>
<path d="M14.901 3.70726C13.6053 3.64967 10.4019 3.64967 9.09896 3.70726C7.96159 3.75765 6.95379 4.03839 6.14755 4.84463C4.79422 6.19796 4.96699 8.02639 4.96699 10.6971C4.96699 13.4325 4.81582 15.2178 6.14755 16.5495C7.50808 17.91 9.35811 17.7301 12 17.7301C14.7138 17.7301 15.6496 17.7301 16.6071 17.3629C17.91 16.859 18.8962 15.6929 18.9898 13.5981C19.0474 12.3023 19.0474 9.09898 18.9898 7.79604C18.8746 5.32693 17.5501 3.82963 14.901 3.70726ZM16.9526 15.6569C16.0672 16.5423 14.8362 16.4631 11.9856 16.4631C9.05577 16.4631 7.8752 16.5063 7.01858 15.6497C6.03237 14.6635 6.21234 13.087 6.21234 10.6899C6.21234 7.45051 5.8812 5.11818 9.13495 4.95261C9.8836 4.92381 10.0996 4.91662 11.9856 4.91662L12.0144 4.93101C15.1386 4.93101 17.5933 4.60708 17.7372 7.85363C17.7732 8.59508 17.7804 8.81824 17.7804 10.6971C17.766 13.5981 17.8236 14.7786 16.9526 15.6569Z" fill="white"/>
<path d="M15.7576 7.78884C16.2228 7.78884 16.5999 7.41176 16.5999 6.94661C16.5999 6.48146 16.2228 6.10438 15.7576 6.10438C15.2925 6.10438 14.9154 6.48146 14.9154 6.94661C14.9154 7.41176 15.2925 7.78884 15.7576 7.78884Z" fill="white"/>
</svg>
