<svg width="24" height="24" viewBox="0 0 24 24" fill="none" xmlns="http://www.w3.org/2000/svg">
<path d="M1.087 6.34913C1.087 6.34913 1.28136 1.25975 6.87465 1.42531C12.4679 1.59088 21.8908 1.36773 22.8339 6.93941C23.7769 12.5111 16.7655 22.9778 11.1074 22.9634C6.22678 22.949 0.784664 13.9076 1.087 6.34913Z" fill="#157CBA"/>
<path d="M18.27 16.1104V11.5105C18.27 9.25735 17.7877 7.5225 15.153 7.5225C13.8861 7.5225 13.0367 8.21356 12.6911 8.87583H12.6551V7.73125H10.1572V16.1104H12.7559V11.964C12.7559 10.8698 12.9647 9.81884 14.318 9.81884C15.6497 9.81884 15.6713 11.0642 15.6713 12.036V16.1176L18.27 16.1104Z" fill="white"/>
<path d="M5.93164 7.73845H8.53032V16.1176H5.93164V7.73845Z" fill="white"/>
<path d="M7.2346 3.56329C6.39957 3.56329 5.7301 4.23995 5.7301 5.06779C5.7301 5.89562 6.40677 6.58668 7.2346 6.58668C8.06244 6.58668 8.7391 5.89562 8.7391 5.06779C8.7391 4.23995 8.06244 3.56329 7.2346 3.56329Z" fill="white"/>
</svg>
