<svg width="24" height="24" viewBox="0 0 24 24" fill="none" xmlns="http://www.w3.org/2000/svg">
<path d="M1.087 6.34913C1.087 6.34913 1.28136 1.25975 6.87465 1.42531C12.4679 1.59088 21.8908 1.36773 22.8339 6.93941C23.7769 12.5111 16.7655 22.9778 11.1074 22.9634C6.22678 22.949 0.784664 13.9076 1.087 6.34913Z" fill="#1AAFDE"/>
<path d="M18.9034 6.67307C18.3923 6.89622 17.8452 7.04739 17.2693 7.11938C17.8596 6.76665 18.3059 6.21956 18.5147 5.55729C17.9676 5.88122 17.3629 6.11158 16.7222 6.24115C16.2039 5.68686 15.4625 5.34133 14.6562 5.34133C13.087 5.34133 11.8272 6.61548 11.8272 8.17756C11.8272 8.40072 11.8488 8.61668 11.892 8.82543C9.53807 8.71026 7.45048 7.58008 6.05396 5.85963C5.80921 6.28434 5.66524 6.76665 5.66524 7.29214C5.66524 8.27115 6.16914 9.14217 6.92499 9.64607C6.47148 9.63887 6.02517 9.5021 5.64364 9.30054C5.64364 9.30774 5.64364 9.32214 5.64364 9.32933C5.64364 10.7043 6.62265 11.8488 7.91119 12.1152C7.68084 12.18 7.42889 12.2088 7.16974 12.2088C6.98978 12.2088 6.80261 12.2016 6.63705 12.1584C7.00417 13.2813 8.04796 14.102 9.28612 14.1308C8.31431 14.8794 7.09056 15.3329 5.76602 15.3329C5.53567 15.3329 5.31251 15.3257 5.08936 15.2969C6.3419 16.1032 7.83201 16.5711 9.43729 16.5711C14.649 16.5711 17.4997 12.2519 17.4997 8.5087C17.4997 8.38632 17.4925 8.26395 17.4925 8.14157C18.0468 7.73845 18.5219 7.24175 18.9034 6.67307Z" fill="white"/>
</svg>
